<svg viewBox="0 0 998 998" fill="none" xmlns="http://www.w3.org/2000/svg">
<g clip-path="url(#clip0_1437_2)">
<path d="M73.6777 104.468C237.542 69.5647 325.894 -0.545187 495.062 0.00319826C667.223 0.561288 757.784 67.2505 924.322 104.468V508.513C772.281 589.031 663.842 104.868 495.062 104.468C329.336 104.075 223.219 586.997 73.6777 508.513V104.468Z" fill="url(#paint0_linear_1437_2)"/>
<path d="M924.322 868.545C760.458 903.448 672.106 998.551 502.938 998.003C330.777 997.444 240.216 905.762 73.678 868.545L73.678 464.5C225.719 383.981 334.158 868.145 502.938 868.545C668.664 868.938 774.781 386.016 924.322 464.5L924.322 868.545Z" fill="url(#paint1_linear_1437_2)"/>
</g>
<defs>
<linearGradient id="paint0_linear_1437_2" x1="73.6777" y1="258.774" x2="924.322" y2="258.774" gradientUnits="userSpaceOnUse">
<stop stop-color="#68A4FF"/>
<stop offset="1" stop-color="#262CB0"/>
</linearGradient>
<linearGradient id="paint1_linear_1437_2" x1="924.322" y1="726.735" x2="73.678" y2="726.735" gradientUnits="userSpaceOnUse">
<stop stop-color="#68A4FF"/>
<stop offset="1" stop-color="#262CB0"/>
</linearGradient>
<clipPath id="clip0_1437_2">
<rect width="998" height="998" fill="white"/>
</clipPath>
</defs>
</svg>
